<svg xmlns="http://www.w3.org/2000/svg" width="400" height="80"><path d="M-70 20l3.673 1.031 3.674 1.834 3.673 2.496 3.674 3.019 3.673 3.402 3.674 3.645 3.673 3.748 3.674 3.712 3.673 3.535 3.674 3.218 3.673 2.762 3.674 2.166 3.673 1.445 3.674.73 3.673.09 3.674-.477 3.673-.967 3.673-1.385 3.674-1.726 3.673-1.994 3.674-2.187 3.673-2.306 3.674-2.349 3.673-2.318 3.674-2.214 3.673-2.062 3.674-1.892 3.673-1.7 3.674-1.492 3.673-1.263 3.674-1.015 3.673-.75 3.673-.462 3.674-.16 3.673.166 3.674.508 3.673.869 3.674 1.216 3.673 1.483 3.674 1.664 3.673 1.756 3.674 1.763 3.673 1.682 3.674 1.514 3.673 1.258 3.674.917 3.673.488 3.674-.028 3.673-.632h0l3.673-1.285 3.674-1.842 3.673-2.265 3.674-2.556 3.673-2.713 3.674-2.737 3.673-2.627 3.674-2.385 3.673-2.008 3.674-1.5 3.673-.856 3.674-.08 3.673.809 3.674 1.646 3.673 2.343 3.674 2.902 3.673 3.32 3.673 3.597 3.674 3.735 3.673 3.734 3.674 3.592 3.673 3.31 3.674 2.89 3.673 2.328 3.674 1.631 3.673.902 3.674.243 3.673-.342 3.674-.851 3.673-1.288 3.674-1.648 3.673-1.934 3.673-2.146 3.674-2.282 3.673-2.345 3.674-2.333 3.673-2.246 3.674-2.103 3.673-1.936 3.674-1.75 3.673-1.546 3.674-1.322 3.673-1.079 3.674-.817 3.673-.536 3.674-.237 3.673.082 3.674.42 3.673.778h0l3.673 1.135 3.674 1.425 3.673 1.627 3.674 1.741 3.673 1.77 3.674 1.71 3.673 1.564 3.674 1.33 3.673 1.01 3.674.604 3.673.109 3.674-.473 3.673-1.125 3.674-1.715 3.673-2.172 3.674-2.496 3.673-2.686 3.673-2.744 3.674-2.667 3.673-2.458 3.674-2.115 3.673-1.639 3.674-1.03 3.673-.287 3.674.583 3.673 1.45 3.674 2.183 3.673 2.775 3.674 3.228 3.673 3.54 3.674 3.715 3.673 3.747 3.673 3.641 3.674 3.394 3.673 3.008 3.674 2.481 3.673 1.816 3.674 1.079 3.673.4 3.674-.202 3.673-.732 3.674-1.185 3.673-1.565 3.674-1.87 3.673-2.1 3.674-2.255 3.673-2.336 3.674-2.343L470 40" stroke="#000" fill="none"/><rect fill="#fff" fill-opacity=".75" width="110" height="100%"/><rect fill="#fff" fill-opacity=".75" x="290" width="110" height="100%"/><g stroke="#000" fill="#fff"><circle cx="110" cy="60" r="4"/><circle cx="155" cy="20" r="4"/><circle cx="200" cy="55" r="4"/><circle cx="245" cy="40" r="4"/><circle cx="290" cy="20" r="4"/></g></svg>