<svg xmlns="http://www.w3.org/2000/svg" width="400" height="80"><path d="M-70-1194.286l3.673 85.3 3.674 81.607 3.673 77.991 3.674 74.452 3.673 70.99 3.674 67.605 3.673 64.296 3.674 61.065 3.673 57.91 3.674 54.834 3.673 51.833 3.674 48.91 3.673 46.062 3.674 43.293 3.673 40.6 3.674 37.984 3.673 35.446 3.673 32.983 3.674 30.599 3.673 28.29 3.674 26.06 3.673 23.904 3.674 21.828 3.673 19.828 3.674 17.904 3.673 16.057 3.674 14.289 3.673 12.595 3.674 10.98 3.673 9.441 3.674 7.98 3.673 6.594 3.673 5.287 3.674 4.055 3.673 2.902 3.674 1.824 3.673.825 3.674-.1 3.673-.945 3.674-1.714 3.673-2.407 3.674-3.023 3.673-3.56 3.674-4.023 3.673-4.408 3.674-4.715 3.673-4.946 3.674-5.1L110 60h0l3.673-5.177 3.674-5.1 3.673-4.945 3.674-4.715 3.673-4.408 3.674-4.022 3.673-3.561 3.674-3.023 3.673-2.407 3.674-1.714 3.673-.946 3.674-.099 3.673.81 3.674 1.646 3.673 2.343 3.674 2.902 3.673 3.32 3.673 3.597 3.674 3.735 3.673 3.734 3.674 3.592 3.673 3.31 3.674 2.89 3.673 2.328 3.674 1.631 3.673.902 3.674.243 3.673-.342 3.674-.851 3.673-1.288 3.674-1.648 3.673-1.934 3.673-2.146 3.674-2.282 3.673-2.345 3.674-2.333 3.673-2.247 3.674-2.112 3.673-1.984 3.674-1.868 3.673-1.762 3.674-1.67 3.673-1.588 3.674-1.518 3.673-1.46 3.674-1.412 3.673-1.378 3.674-1.355L290 20h0l3.673-1.343 3.674-1.355 3.673-1.378 3.674-1.413 3.673-1.46 3.674-1.517 3.673-1.588 3.674-1.67 3.673-1.762 3.674-1.868 3.673-1.984L334.082.55l3.673-2.253 3.674-2.404 3.673-2.567 3.674-2.742 3.673-2.928 3.673-3.126 3.674-3.337 3.673-3.558 3.674-3.79 3.673-4.037 3.674-4.292 3.673-4.56 3.674-4.84 3.673-5.132 3.674-5.435 3.673-5.749 3.674-6.076 3.673-6.414 3.674-6.763 3.673-7.125 3.673-7.498 3.674-7.882 3.673-8.28 3.674-8.686 3.673-9.107 3.674-9.538 3.673-9.98 3.674-10.436 3.673-10.902 3.674-11.38 3.673-11.869 3.674-12.37 3.673-12.884 3.674-13.408 3.673-13.944 3.674-14.492L470-274.286" stroke="#000" fill="none"/><rect fill="#fff" fill-opacity=".75" width="110" height="100%"/><rect fill="#fff" fill-opacity=".75" x="290" width="110" height="100%"/><g stroke="#000" fill="#fff"><circle cx="110" cy="60" r="4"/><circle cx="155" cy="20" r="4"/><circle cx="200" cy="55" r="4"/><circle cx="245" cy="40" r="4"/><circle cx="290" cy="20" r="4"/></g></svg>