<svg xmlns="http://www.w3.org/2000/svg" width="400" height="80"><path d="M-70-2980l3.673 176.148 3.674 169.349 3.673 162.679 3.674 156.14 3.673 149.733 3.674 143.454 3.673 137.307 3.674 131.291 3.673 125.405 3.674 119.65 3.673 114.024 3.674 108.53 3.673 103.167 3.674 97.933 3.673 92.831 3.674 87.859 3.673 83.017 3.673 78.306 3.674 73.726 3.673 69.276 3.674 64.956 3.673 60.768 3.674 56.71 3.673 52.782 3.674 48.985 3.673 45.319 3.674 41.782 3.673 38.377 3.674 35.103 3.673 31.958 3.674 28.944 3.673 26.062 3.673 23.308 3.674 20.687L58.571-6.24l3.674 15.834L65.918 23.2l3.674 11.504 3.673 9.535 3.674 7.696 3.673 5.988 3.674 4.41 3.673 2.964 3.674 1.647 3.673.46 3.674-.594 3.673-1.519 3.674-2.313L110 60h0l3.673-3.51 3.674-3.913 3.673-4.184 3.674-4.326 3.673-4.337 3.674-4.218 3.673-3.967 3.674-3.586 3.673-3.075 3.674-2.433 3.673-1.66 3.674-.758 3.673.345 3.674 1.56 3.673 2.562 3.674 3.332 3.673 3.874 3.673 4.189 3.674 4.274 3.673 4.132 3.674 3.76 3.673 3.16 3.674 2.333 3.673 1.276 3.674.125 3.673-.344 3.674-.65 3.673-.914 3.674-1.138 3.673-1.321 3.674-1.463 3.673-1.565 3.673-1.624 3.674-1.645 3.673-1.623 3.674-1.562 3.673-1.465 3.674-1.476 3.673-1.532 3.674-1.581 3.673-1.62 3.674-1.654 3.673-1.676 3.674-1.692 3.673-1.7 3.674-1.699 3.673-1.69 3.674-1.673L290 20h0l3.673-1.615 3.674-1.573 3.673-1.523 3.674-1.466 3.673-1.4 3.674-1.325 3.673-1.244 3.674-1.153 3.673-1.054 3.674-.948 3.673-.832 3.674-.71 3.673-.578 3.674-.44 3.673-.29 3.674-.136 3.673.028 3.673.2 3.674.38 3.673.57 3.674.765 3.673.97 3.674 1.183 3.673 1.404 3.674 1.633 3.673 1.87 3.674 2.116 3.673 2.37 3.674 2.63 3.673 2.902 3.674 3.179 3.673 3.465 3.673 3.76 3.674 4.063 3.673 4.373 3.674 4.693 3.673 5.019 3.674 5.355 3.673 5.697 3.674 6.05 3.673 6.41 3.674 6.776 3.673 7.153 3.674 7.538 3.673 7.93 3.674 8.33 3.673 8.739 3.674 9.155L470 140" stroke="#000" fill="none"/><rect fill="#fff" fill-opacity=".75" width="110" height="100%"/><rect fill="#fff" fill-opacity=".75" x="290" width="110" height="100%"/><g stroke="#000" fill="#fff"><circle cx="110" cy="60" r="4"/><circle cx="155" cy="20" r="4"/><circle cx="200" cy="55" r="4"/><circle cx="245" cy="40" r="4"/><circle cx="290" cy="20" r="4"/></g></svg>