<svg xmlns="http://www.w3.org/2000/svg" width="400" height="80"><path d="M-70 32.5l3.673.034 3.674.467 3.673.83 3.674 1.126 3.673 1.353 3.674 1.514 3.673 1.605 3.674 1.63 3.673 1.584 3.674 1.473 3.673 1.292 3.674 1.044 3.673.735 3.674.42 3.673.13 3.674-.137 3.673-.377 3.673-.595 3.674-.787 3.673-.955 3.674-1.098 3.673-1.218 3.674-1.312 3.673-1.382 3.674-1.427 3.673-1.443 3.674-1.423 3.673-1.368 3.674-1.277 3.673-1.152 3.674-.99L47.55 30l3.673-.562 3.674-.295 3.673.008 3.674.346 3.673.718 3.674 1.092 3.673 1.396 3.674 1.625 3.673 1.777 3.674 1.853 3.673 1.853 3.674 1.777 3.673 1.625 3.674 1.396 3.673 1.092 3.674.71 3.673.255h0l3.673-.253 3.674-.701 3.673-1.066 3.674-1.346 3.673-1.542 3.674-1.653 3.673-1.68 3.674-1.624 3.673-1.482 3.674-1.256 3.673-.946 3.674-.552 3.673-.083 3.674.364 3.673.746 3.674 1.058 3.673 1.303 3.673 1.48 3.674 1.589 3.673 1.63 3.674 1.602 3.673 1.507 3.674 1.344 3.673 1.112 3.674.816 3.673.496 3.674.2 3.673-.072 3.674-.32 3.673-.542 3.674-.741 3.673-.916 3.673-1.065 3.674-1.19 3.673-1.29 3.674-1.367 3.673-1.418 3.674-1.443 3.673-1.43 3.674-1.386 3.673-1.303 3.674-1.187 3.673-1.034 3.674-.846 3.673-.624 3.674-.365 3.673-.071 3.674.258L290 30h0l3.673 1.004 3.674 1.327 3.673 1.575 3.674 1.746 3.673 1.84 3.674 1.861 3.673 1.803 3.674 1.67 3.673 1.46 3.674 1.176 3.673.813 3.674.375 3.673-.127 3.674-.597 3.673-.983 3.674-1.284 3.673-1.5 3.673-1.634 3.674-1.681 3.673-1.646 3.674-1.525 3.673-1.32 3.674-1.032 3.673-.658 3.674-.204 3.673.259 3.674.657 3.673.986 3.674 1.248 3.673 1.442 3.674 1.568 3.673 1.626 3.673 1.615 3.674 1.538 3.673 1.39 3.674 1.177 3.673.895 3.674.575 3.673.271 3.674-.006 3.673-.26 3.674-.49 3.673-.693 3.674-.874 3.673-1.03 3.674-1.16 3.673-1.268 3.674-1.35L470 39.166" stroke="#000" fill="none"/><rect fill="#fff" fill-opacity=".75" width="110" height="100%"/><rect fill="#fff" fill-opacity=".75" x="290" width="110" height="100%"/><g stroke="#000" fill="#fff"><circle cx="110" cy="60" r="4"/><circle cx="155" cy="20" r="4"/><circle cx="200" cy="55" r="4"/><circle cx="245" cy="40" r="4"/><circle cx="290" cy="20" r="4"/></g></svg>