<svg xmlns="http://www.w3.org/2000/svg" width="400" height="80"><path d="M-70 220l3.673-3.265 3.674-3.266 3.673-3.265 3.674-3.265 3.673-3.266 3.674-3.265 3.673-3.265 3.674-3.265 3.673-3.266 3.674-3.265 3.673-3.265 3.674-3.266 3.673-3.265 3.674-3.265 3.673-3.266 3.674-3.265 3.673-3.265 3.673-3.266 3.674-3.265 3.673-3.265 3.674-3.265 3.673-3.266 3.674-3.265 3.673-3.265 3.674-3.266 3.673-3.265 3.674-3.265 3.673-3.266 3.674-3.265 3.673-3.265 3.674-3.265 3.673-3.266 3.673-3.265 3.674-3.265 3.673-3.266 3.674-3.265 3.673-3.265 3.674-3.266 3.673-3.265 3.674-3.265 3.673-3.266 3.674-3.265 3.673-3.265 3.674-3.265 3.673-3.266 3.674-3.265 3.673-3.265 3.674-3.266L110 60h0l3.673-3.265 3.674-3.266 3.673-3.265 3.674-3.265 3.673-3.266 3.674-3.265 3.673-3.265 3.674-3.265 3.673-3.266 3.674-3.265 3.673-3.265 3.674-3.266 3.673 1.327L161.43 25l3.673 2.857 3.674 2.857 3.673 2.857 3.673 2.858 3.674 2.857 3.673 2.857L187.143 45l3.673 2.857 3.674 2.857 3.673 2.857 3.674.817 3.673-1.225 3.674-1.224 3.673-1.225 3.674-1.224 3.673-1.225 3.674-1.224 3.673-1.225 3.673-1.224 3.674-1.225 3.673-1.224 3.674-1.225 3.673-1.326 3.674-1.633 3.673-1.632 3.674-1.633 3.673-1.633 3.674-1.632 3.673-1.633 3.674-1.633 3.673-1.632 3.674-1.633 3.673-1.633 3.674-1.632L290 20h0l3.673-1.633 3.674-1.632 3.673-1.633 3.674-1.633 3.673-1.632 3.674-1.633 3.673-1.633 3.674-1.632 3.673-1.633 3.674-1.633 3.673-1.632 3.674-1.633 3.673-1.632 3.674-1.633 3.673-1.633 3.674-1.632 3.673-1.633 3.673-1.633 3.674-1.632 3.673-1.633 3.674-1.633 3.673-1.632 3.674-1.633 3.673-1.633 3.674-1.632 3.673-1.633 3.674-1.633 3.673-1.632 3.674-1.633 3.673-1.633 3.674-1.632 3.673-1.633 3.673-1.633 3.674-1.632 3.673-1.633 3.674-1.633 3.673-1.632 3.674-1.633 3.673-1.632 3.674-1.633 3.673-1.633 3.674-1.632 3.673-1.633 3.674-1.633 3.673-1.632 3.674-1.633 3.673-1.633 3.674-1.632L470-60" stroke="#000" fill="none"/><rect fill="#fff" fill-opacity=".75" width="110" height="100%"/><rect fill="#fff" fill-opacity=".75" x="290" width="110" height="100%"/><g stroke="#000" fill="#fff"><circle cx="110" cy="60" r="4"/><circle cx="155" cy="20" r="4"/><circle cx="200" cy="55" r="4"/><circle cx="245" cy="40" r="4"/><circle cx="290" cy="20" r="4"/></g></svg>