<svg xmlns="http://www.w3.org/2000/svg" width="400" height="80"><path d="M-70-580l3.673 44.722 3.674 42.763 3.673 40.845 3.674 38.969 3.673 37.133 3.674 35.337 3.673 33.584 3.674 31.87 3.673 30.196 3.674 28.565 3.673 26.974 3.674 25.424 3.673 23.913 3.674 22.446 3.673 21.017 3.674 19.63 3.673 18.283 3.673 16.978 3.674 15.713 3.673 14.49L7.143 2.156l3.673 12.164 3.674 11.062 3.673 10.001 3.674 8.982 3.673 8.002 3.674 7.064 3.673 6.166 3.674 5.309 3.673 4.493 3.674 3.719 3.673 2.983 3.673 2.29 3.674 1.638 3.673 1.025 3.674.455 3.673-.077 3.674-.565 3.673-1.015 3.674-1.422 3.673-1.79 3.674-2.116 3.673-2.402 3.674-2.646 3.673-2.851 3.674-3.014 3.673-3.136 3.674-3.217L110 60h0l3.673-3.259 3.674-3.217 3.673-3.136 3.674-3.014 3.673-2.85 3.674-2.647 3.673-2.402 3.674-2.116 3.673-1.79 3.674-1.422 3.673-1.015 3.674-.565 3.673-.084 3.674.364 3.673.746 3.674 1.058 3.673 1.303 3.673 1.48 3.674 1.589 3.673 1.63 3.674 1.602 3.673 1.507 3.674 1.344 3.673 1.112 3.674.816 3.673.496 3.674.2 3.673-.072 3.674-.32 3.673-.542 3.674-.741 3.673-.916 3.673-1.065 3.674-1.19 3.673-1.29 3.674-1.367 3.673-1.419 3.674-1.452 3.673-1.483 3.674-1.51 3.673-1.534 3.674-1.556 3.673-1.575 3.674-1.591 3.673-1.605 3.674-1.616 3.673-1.624 3.674-1.63L290 20h0l3.673-1.632 3.674-1.63 3.673-1.624 3.674-1.616 3.673-1.605 3.674-1.591 3.673-1.575 3.674-1.556 3.673-1.534 3.674-1.51 3.673-1.483 3.674-1.452 3.673-1.42 3.674-1.385 3.673-1.347 3.674-1.306 3.673-1.262 3.673-1.216 3.674-1.167 3.673-1.115 3.674-1.061 3.673-1.004 3.674-.944 3.673-.882 3.674-.816 3.673-.748 3.674-.678 3.673-.604 3.674-.528 3.673-.449 3.674-.367 3.673-.283 3.673-.196 3.674-.107 3.673-.014 3.674.082 3.673.18 3.674.28 3.673.382 3.674.49 3.673.598 3.674.71 3.673.823 3.674.941 3.673 1.06 3.674 1.184 3.673 1.308 3.674 1.436L470-6.667" stroke="#000" fill="none"/><rect fill="#fff" fill-opacity=".75" width="110" height="100%"/><rect fill="#fff" fill-opacity=".75" x="290" width="110" height="100%"/><g stroke="#000" fill="#fff"><circle cx="110" cy="60" r="4"/><circle cx="155" cy="20" r="4"/><circle cx="200" cy="55" r="4"/><circle cx="245" cy="40" r="4"/><circle cx="290" cy="20" r="4"/></g></svg>