<svg version="1.1" xmlns="http://www.w3.org/2000/svg" width="132.262px" height="30.383px" viewBox="0 0 132.262 30.383">
<path fill="#d84f4c" d="M18.07,27.704c-0.04,0.16-0.16,0.32-0.32,0.44c-1.319,0.84-3.958,2.119-7.676,2.119
	C4.238,30.263,0,26.865,0,20.668C0,13.432,5.717,8.915,12.033,8.915c3.638,0,6.356,1.239,8.075,2.639c0.12,0.12,0.2,0.28,0.16,0.48
	l-0.88,4.837c-0.04,0.32-0.2,0.48-0.52,0.56l-1.839,0.48c-0.28,0.08-0.44-0.04-0.52-0.24c-0.64-1.759-2.319-2.758-4.717-2.758
	s-5.117,1.719-5.117,5.077c0,2.239,1.799,4.118,4.437,4.118c2.359,0,4.198-1.119,5.357-2.639c0.16-0.24,0.36-0.32,0.6-0.24
	l1.839,0.72c0.16,0.04,0.28,0.2,0.24,0.44L18.07,27.704z M52.609,22.267c0.48,0.32,0.48,0.64,0.32,1.159
	c-1.239,3.718-4.677,6.956-8.915,6.956c-2.559,0-4.677-1.199-4.677-3.878c0-0.759,0.12-1.639,0.4-2.638h-0.52
	c-1.839,4.517-4.797,6.436-8.435,6.436c-3.278,0-5.237-2.199-5.237-5.317c0-2.638,2.279-6.276,2.279-8.475
	c0-0.759-0.28-1.239-1-1.239c-1.199,0-1.959,1.959-2.519,3.758c-0.12,0.48-0.64,0.56-0.959,0.16l-2.199-2.838
	c-0.4-0.48-0.28-0.959-0.08-1.599c0.88-2.638,3.438-5.797,7.356-5.797c2.918,0,5.277,1.639,5.277,5.597
	c0,3.478-1.839,6.396-1.839,7.836c0,1.079,0.88,1.559,2.039,1.559c1.959,0,4.677-1.439,5.157-4.158l0.799-4.437h-2.399
	c-0.28,0-0.64-0.16-0.56-0.68l0.799-4.598c0.08-0.4,0.4-0.679,0.8-0.679H49.53c0.4,0,0.64,0.28,0.56,0.679l-0.799,4.598
	c-0.08,0.4-0.4,0.68-0.76,0.68h-2.398l-1.119,6.236c-0.24,1.279-0.16,2.399,0.88,2.399c1.239,0,2.039-1.519,2.798-3.438
	c0.12-0.32,0.4-0.68,0.96-0.32L52.609,22.267z M67.718,22.827c0.4,0.48,0.28,0.959,0.08,1.599c-0.88,2.639-3.398,5.837-7.596,5.837
	c-4.838,0-6.396-3.598-5.357-8.595l2.878-13.912h-3.198c-0.56,0-0.68-0.2-0.6-0.68l0.799-4.597c0.08-0.48,0.36-0.68,0.76-0.68h8.595
	c0.6,0,0.84,0.4,0.719,0.96l-3.518,17.75c-0.32,1.599-0.6,3.398,0.759,3.398c1.199,0,1.959-1.959,2.519-3.758
	c0.12-0.48,0.639-0.56,0.96-0.16L67.718,22.827z M79.031,30.263c-6.676,0-9.994-3.958-9.994-9.195
	c0-5.677,3.758-12.153,12.393-12.153c6.676,0,9.994,3.958,9.994,9.195C91.424,23.786,87.665,30.263,79.031,30.263z M80.909,15.031
	c-2.879,0-5.877,1.799-5.877,5.277c0,2.599,2.119,3.838,4.517,3.838c2.878,0,5.877-1.799,5.877-5.277
	C85.427,16.271,83.308,15.031,80.909,15.031z M96.019,29.783c-0.4,0-0.64-0.28-0.56-0.68l0.799-4.597c0.08-0.4,0.4-0.68,0.76-0.68
	h2.398l1.239-6.237c0.24-1.279,0.04-2.399-0.999-2.399c-1.239,0-2.039,1.519-2.799,3.438c-0.12,0.32-0.4,0.68-0.959,0.32
	l-2.958-2.039c-0.48-0.32-0.48-0.64-0.32-1.159c1.239-3.718,4.678-6.956,8.915-6.956c2.559,0,4.677,1.199,4.677,3.878
	c0,0.76-0.12,1.639-0.559,3.158h0.52c0.48-2.359,1.679-6.956,6.756-6.956c1.359,0,2.439,0.4,2.878,0.92
	c0.12,0.12,0.16,0.24,0.12,0.44l-1.319,7.795c-0.04,0.28-0.2,0.48-0.48,0.48h-1.439c-0.16,0-0.28-0.04-0.32-0.24
	c-0.2-1.199-0.68-1.959-2.159-1.959c-2.039,0-3.518,1.719-3.958,4.318l-0.56,3.198h2.079c0.28,0,0.64,0.16,0.56,0.68l-0.799,4.597
	c-0.08,0.4-0.4,0.68-0.799,0.68H96.019z M131.997,22.827c0.4,0.48,0.28,0.959,0.08,1.599c-0.88,2.639-3.398,5.837-7.596,5.837
	c-4.837,0-6.556-3.478-5.437-8.155l1.599-6.756h-3.158c-0.559,0-0.68-0.2-0.6-0.68l0.799-4.598c0.08-0.48,0.36-0.679,0.76-0.679
	h8.635c0.6,0,0.839,0.4,0.719,0.959l-2.318,10.354c-0.36,1.599-0.52,3.198,0.839,3.198c1.199,0,1.959-1.959,2.519-3.758
	c0.12-0.48,0.639-0.56,0.959-0.16L131.997,22.827z M125.241,7.596c-2.079,0-3.718-1.439-3.718-3.478
	c0-2.359,2.079-4.118,4.398-4.118c2.079,0,3.718,1.439,3.718,3.478C129.638,5.837,127.559,7.596,125.241,7.596z"/>
</svg>
