<svg xmlns="http://www.w3.org/2000/svg" width="400" height="80"><path d="M-70 770l3.673-19.353 3.674-19.278 3.673-19.196 3.674-19.104 3.673-19.005 3.674-18.897 3.673-18.782 3.674-18.658 3.673-18.526 3.674-18.387 3.673-18.238 3.674-18.081 3.673-17.917 3.674-17.744 3.673-17.564 3.674-17.374 3.673-17.177 3.673-16.972 3.674-16.758 3.673-16.537 3.674-16.306 3.673-16.069 3.674-15.823 3.673-15.568 3.674-15.306 3.673-15.035 3.674-14.756 3.673-14.47 3.674-14.174 3.673-13.87 3.674-13.56 3.673-13.24 3.673-12.913 3.674-12.576 3.673-12.232 3.674-11.88 3.673-11.52 3.674-11.15 3.673-10.775 3.674-10.39 3.673-9.996 3.674-9.595 3.673-9.186 3.674-8.768 3.673-8.343 3.674-7.909 3.673-7.467 3.674-7.017L110 60h0l3.673-6.092 3.674-5.617 3.673-5.135 3.674-4.643 3.673-4.145 3.674-3.637 3.673-3.122 3.674-2.598 3.673-2.066 3.674-1.527 3.673-.978 3.674-.422 3.673.36 3.674 1.56 3.673 2.562 3.674 3.332 3.673 3.874 3.673 4.189 3.674 4.274 3.673 4.132 3.674 3.76 3.673 3.16 3.674 2.333 3.673 1.276 3.674.125 3.673-.344 3.674-.65 3.673-.914 3.674-1.138 3.673-1.321 3.674-1.463 3.673-1.565 3.673-1.624 3.674-1.645 3.673-1.623 3.674-1.562 3.673-1.464 3.674-1.454 3.673-1.487 3.674-1.52 3.673-1.553 3.674-1.587 3.673-1.62 3.674-1.654 3.673-1.687 3.674-1.72 3.673-1.753 3.674-1.787L290 20h0l3.673-1.853 3.674-1.887 3.673-1.92 3.674-1.953 3.673-1.987 3.674-2.02 3.673-2.053 3.674-2.087 3.673-2.12 3.674-2.153 3.673-2.187 3.674-2.22 3.673-2.253 3.674-2.287 3.673-2.32 3.674-2.353 3.673-2.386 3.673-2.42 3.674-2.453 3.673-2.487 3.674-2.52 3.673-2.552 3.674-2.587 3.673-2.62 3.674-2.653 3.673-2.686 3.674-2.72 3.673-2.753 3.674-2.786 3.673-2.82 3.674-2.853 3.673-2.886 3.673-2.92 3.674-2.953 3.673-2.986 3.674-3.02 3.673-3.052 3.674-3.087 3.673-3.12 3.674-3.152 3.673-3.186 3.674-3.22 3.673-3.252 3.674-3.287 3.673-3.319 3.674-3.353 3.673-3.386 3.674-3.42L470-110" stroke="#000" fill="none"/><rect fill="#fff" fill-opacity=".75" width="110" height="100%"/><rect fill="#fff" fill-opacity=".75" x="290" width="110" height="100%"/><g stroke="#000" fill="#fff"><circle cx="110" cy="60" r="4"/><circle cx="155" cy="20" r="4"/><circle cx="200" cy="55" r="4"/><circle cx="245" cy="40" r="4"/><circle cx="290" cy="20" r="4"/></g></svg>