<svg xmlns="http://www.w3.org/2000/svg" width="400" height="80"><path d="M-70-6980l3.673 384.683 3.674 370.55 3.673 356.68 3.674 343.067 3.673 329.719 3.674 316.63 3.673 303.802 3.674 291.237 3.673 278.931 3.674 266.888 3.673 255.104 3.674 243.583 3.673 232.322 3.674 221.323 3.673 210.584 3.674 200.107 3.673 189.891 3.673 179.936 3.674 170.242 3.673 160.81 3.674 151.637 3.673 142.727 3.674 134.077 3.673 125.69 3.674 117.561 3.673 109.696 3.674 102.091 3.673 94.747 3.674 87.664 3.673 80.843 3.674 74.282 3.673 67.982 3.673 61.944 3.674 56.167 3.673 50.651 3.674 45.396 3.673 40.403 3.674 35.67 3.673 31.197 3.674 26.987 3.673 23.038 3.674 19.35 3.673 15.923 3.674 12.756 3.673 9.852 3.674 7.208 3.673 4.825 3.674 2.704L110 60h0l3.673-.756 3.674-2.095 3.673-3.171 3.674-3.987 3.673-4.543 3.674-4.836 3.673-4.869 3.674-4.64 3.673-4.15 3.674-3.4 3.673-2.389 3.674-1.115 3.673.329 3.674 1.56 3.673 2.562 3.674 3.332 3.673 3.874 3.673 4.189 3.674 4.274 3.673 4.132 3.674 3.76 3.673 3.16 3.674 2.333 3.673 1.276 3.674.125 3.673-.344 3.674-.65 3.673-.914 3.674-1.138 3.673-1.321 3.674-1.463 3.673-1.565 3.673-1.624 3.674-1.645 3.673-1.623 3.674-1.562 3.673-1.473 3.674-1.655 3.673-1.896 3.674-2.064 3.673-2.159 3.674-2.18 3.673-2.127 3.674-2.002 3.673-1.802 3.674-1.53 3.673-1.183 3.674-.764L290 20h0l3.673.295 3.674.936 3.673 1.648 3.674 2.436 3.673 3.295 3.674 4.23 3.673 5.236 3.674 6.317 3.673 7.47 3.674 8.698 3.673 10 3.674 11.372 3.673 12.821 3.674 14.342 3.673 15.937 3.674 17.604 3.673 19.346 3.673 21.161 3.674 23.05 3.673 25.01 3.674 27.047 3.673 29.155 3.674 31.337 3.673 33.592 3.674 35.921 3.673 38.324 3.674 40.8 3.673 43.349 3.674 45.972 3.673 48.667 3.674 51.438 3.673 54.28 3.673 57.197 3.674 60.187 3.673 63.25 3.674 66.387 3.673 69.597 3.674 72.881 3.673 76.238 3.674 79.669 3.673 83.172 3.674 86.75 3.673 90.4 3.674 94.126 3.673 97.923 3.674 101.794 3.673 105.738 3.674 109.757L470 2140" stroke="#000" fill="none"/><rect fill="#fff" fill-opacity=".75" width="110" height="100%"/><rect fill="#fff" fill-opacity=".75" x="290" width="110" height="100%"/><g stroke="#000" fill="#fff"><circle cx="110" cy="60" r="4"/><circle cx="155" cy="20" r="4"/><circle cx="200" cy="55" r="4"/><circle cx="245" cy="40" r="4"/><circle cx="290" cy="20" r="4"/></g></svg>